<svg xmlns="http://www.w3.org/2000/svg" viewBox="0 0 1200 630" fill="none">
  <!-- Background -->
  <rect width="1200" height="630" fill="#fafafa"/>

  <!-- Title area -->
  <text x="600" y="90" text-anchor="middle" font-family="-apple-system, BlinkMacSystemFont, 'Helvetica Neue', sans-serif" font-size="48" font-weight="600" fill="#1d1d1f" letter-spacing="-1">Social Link Preview</text>
  <text x="600" y="130" text-anchor="middle" font-family="-apple-system, BlinkMacSystemFont, 'Helvetica Neue', sans-serif" font-size="22" fill="#86868b" font-weight="400">See how your link looks on every platform. No signup.</text>

  <!-- URL input mockup -->
  <rect x="250" y="160" width="700" height="48" rx="12" fill="#fff" stroke="#e5e5e7" stroke-width="1.5"/>
  <text x="274" y="190" font-family="-apple-system, BlinkMacSystemFont, 'Helvetica Neue', sans-serif" font-size="16" fill="#1d1d1f">https://yourwebsite.com</text>
  <rect x="830" y="160" width="100" height="48" rx="12" fill="#007aff"/>
  <text x="880" y="190" text-anchor="middle" font-family="-apple-system, BlinkMacSystemFont, 'Helvetica Neue', sans-serif" font-size="16" fill="#fff" font-weight="500">Preview</text>

  <!-- Platform cards row 1 -->
  <!-- Google -->
  <rect x="60" y="240" width="255" height="150" rx="10" fill="#fff" stroke="#e5e5e7" stroke-width="1"/>
  <text x="80" y="268" font-family="-apple-system, sans-serif" font-size="11" fill="#86868b" font-weight="500" letter-spacing="0.8">GOOGLE</text>
  <rect x="80" y="280" width="140" height="8" rx="4" fill="#1a0dab" opacity="0.7"/>
  <rect x="80" y="296" width="200" height="6" rx="3" fill="#4d5156" opacity="0.4"/>
  <rect x="80" y="310" width="180" height="6" rx="3" fill="#4d5156" opacity="0.3"/>
  <rect x="80" y="330" width="80" height="40" rx="4" fill="#f0f0f0"/>
  <rect x="170" y="334" width="120" height="6" rx="3" fill="#4d5156" opacity="0.3"/>
  <rect x="170" y="348" width="100" height="6" rx="3" fill="#4d5156" opacity="0.2"/>

  <!-- Discord -->
  <rect x="335" y="240" width="255" height="150" rx="10" fill="#313338" stroke="#3a3b3c" stroke-width="1"/>
  <text x="355" y="268" font-family="-apple-system, sans-serif" font-size="11" fill="#86868b" font-weight="500" letter-spacing="0.8">DISCORD</text>
  <rect x="355" y="280" width="215" height="100" rx="4" fill="#2b2d31"/>
  <rect x="355" y="280" width="4" height="100" rx="2" fill="#5865f2"/>
  <rect x="370" y="294" width="80" height="6" rx="3" fill="#00a8fc" opacity="0.7"/>
  <rect x="370" y="308" width="180" height="5" rx="2.5" fill="#dbdee1" opacity="0.4"/>
  <rect x="370" y="320" width="150" height="5" rx="2.5" fill="#dbdee1" opacity="0.3"/>
  <rect x="370" y="338" width="180" height="36" rx="3" fill="#1e1f22" opacity="0.5"/>

  <!-- X/Twitter -->
  <rect x="610" y="240" width="255" height="150" rx="10" fill="#000" stroke="#2f3336" stroke-width="1"/>
  <text x="630" y="268" font-family="-apple-system, sans-serif" font-size="11" fill="#86868b" font-weight="500" letter-spacing="0.8">X (TWITTER)</text>
  <rect x="630" y="280" width="215" height="100" rx="12" fill="#000" stroke="#2f3336" stroke-width="1"/>
  <rect x="630" y="280" width="215" height="55" rx="12" fill="#2f3336" opacity="0.5"/>
  <rect x="645" y="346" width="100" height="5" rx="2.5" fill="#e7e9ea" opacity="0.5"/>
  <rect x="645" y="358" width="70" height="4" rx="2" fill="#71767b" opacity="0.5"/>

  <!-- Facebook -->
  <rect x="885" y="240" width="255" height="150" rx="10" fill="#242526" stroke="#3a3b3c" stroke-width="1"/>
  <text x="905" y="268" font-family="-apple-system, sans-serif" font-size="11" fill="#86868b" font-weight="500" letter-spacing="0.8">FACEBOOK</text>
  <rect x="905" y="280" width="215" height="56" rx="4" fill="#3a3b3c" opacity="0.5"/>
  <rect x="905" y="340" width="215" height="40" rx="0" fill="#2b2b2d"/>
  <rect x="915" y="350" width="60" height="5" rx="2.5" fill="#b0b3b8" opacity="0.4"/>
  <rect x="915" y="362" width="140" height="6" rx="3" fill="#e4e6eb" opacity="0.4"/>

  <!-- Platform cards row 2 -->
  <!-- LinkedIn -->
  <rect x="60" y="410" width="255" height="150" rx="10" fill="#fff" stroke="#e0e0e0" stroke-width="1"/>
  <text x="80" y="438" font-family="-apple-system, sans-serif" font-size="11" fill="#86868b" font-weight="500" letter-spacing="0.8">LINKEDIN</text>
  <rect x="80" y="450" width="215" height="56" rx="2" fill="#f3f2ef"/>
  <rect x="80" y="510" width="215" height="36" rx="0" fill="#f3f2ef" opacity="0.8"/>
  <rect x="90" y="520" width="130" height="6" rx="3" fill="rgba(0,0,0,0.6)" opacity="0.5"/>
  <rect x="90" y="533" width="80" height="5" rx="2.5" fill="rgba(0,0,0,0.4)" opacity="0.3"/>

  <!-- Slack -->
  <rect x="335" y="410" width="255" height="150" rx="10" fill="#fff" stroke="#e0e0e0" stroke-width="1"/>
  <text x="355" y="438" font-family="-apple-system, sans-serif" font-size="11" fill="#86868b" font-weight="500" letter-spacing="0.8">SLACK</text>
  <rect x="355" y="450" width="215" height="100" rx="4" fill="#fff" stroke="#e0e0e0" stroke-width="1"/>
  <rect x="355" y="450" width="4" height="100" rx="2" fill="#e0e0e0"/>
  <rect x="370" y="464" width="90" height="6" rx="3" fill="#1d1c1d" opacity="0.6"/>
  <rect x="370" y="478" width="120" height="5" rx="2.5" fill="#1264a3" opacity="0.5"/>
  <rect x="370" y="492" width="180" height="5" rx="2.5" fill="#616061" opacity="0.3"/>
  <rect x="370" y="504" width="150" height="5" rx="2.5" fill="#616061" opacity="0.2"/>

  <!-- iMessage -->
  <rect x="610" y="410" width="255" height="150" rx="10" fill="#1c1c1e" stroke="#3a3a3c" stroke-width="1"/>
  <text x="630" y="438" font-family="-apple-system, sans-serif" font-size="11" fill="#86868b" font-weight="500" letter-spacing="0.8">iMESSAGE</text>
  <rect x="650" y="450" width="180" height="100" rx="14" fill="#262628"/>
  <rect x="650" y="450" width="180" height="55" rx="14" fill="#3a3a3c" opacity="0.5"/>
  <rect x="665" y="516" width="100" height="5" rx="2.5" fill="#fff" opacity="0.5"/>
  <rect x="665" y="528" width="60" height="4" rx="2" fill="#98989e" opacity="0.5"/>

  <!-- WhatsApp -->
  <rect x="885" y="410" width="255" height="150" rx="10" fill="#0b141a" stroke="#2a3942" stroke-width="1"/>
  <text x="905" y="438" font-family="-apple-system, sans-serif" font-size="11" fill="#86868b" font-weight="500" letter-spacing="0.8">WHATSAPP</text>
  <rect x="905" y="450" width="200" height="100" rx="8" fill="#1d2a30"/>
  <rect x="905" y="450" width="200" height="50" rx="8" fill="#2a3942" opacity="0.5"/>
  <rect x="915" y="510" width="120" height="5" rx="2.5" fill="#e9edef" opacity="0.4"/>
  <rect x="915" y="522" width="170" height="4" rx="2" fill="#8696a0" opacity="0.3"/>
  <rect x="915" y="534" width="60" height="4" rx="2" fill="#8696a0" opacity="0.2"/>

  <!-- Bottom credit -->
  <text x="600" y="610" text-anchor="middle" font-family="-apple-system, BlinkMacSystemFont, 'Helvetica Neue', sans-serif" font-size="15" fill="#86868b">Built by Roman Slack</text>
</svg>
